<svg width="341" height="355" viewBox="0 0 341 355" fill="none" xmlns="http://www.w3.org/2000/svg">
<path d="M165.017 11.0909V46H157.636V18.0966H157.432L149.438 23.108V16.5625L158.08 11.0909H165.017ZM173.314 46V40.6818L185.74 29.1761C186.797 28.1534 187.683 27.233 188.399 26.4148C189.126 25.5966 189.678 24.7955 190.053 24.0114C190.428 23.2159 190.615 22.358 190.615 21.4375C190.615 20.4148 190.382 19.5341 189.916 18.7955C189.45 18.0455 188.814 17.4716 188.007 17.0739C187.2 16.6648 186.286 16.4602 185.263 16.4602C184.195 16.4602 183.263 16.6761 182.467 17.108C181.672 17.5398 181.058 18.1591 180.626 18.9659C180.195 19.7727 179.979 20.733 179.979 21.8466H172.973C172.973 19.5625 173.49 17.5795 174.524 15.8977C175.558 14.2159 177.007 12.9148 178.871 11.9943C180.734 11.0739 182.882 10.6136 185.314 10.6136C187.814 10.6136 189.99 11.0568 191.842 11.9432C193.706 12.8182 195.155 14.0341 196.189 15.5909C197.223 17.1477 197.74 18.9318 197.74 20.9432C197.74 22.2614 197.479 23.5625 196.956 24.8466C196.445 26.1307 195.53 27.5568 194.212 29.125C192.893 30.6818 191.036 32.5511 188.638 34.733L183.541 39.7273V39.9659H198.2V46H173.314Z" fill="white"/>
<path d="M174.227 343.477C172.432 343.466 170.699 343.165 169.028 342.574C167.369 341.983 165.881 341.023 164.562 339.693C163.244 338.364 162.199 336.602 161.426 334.409C160.665 332.216 160.284 329.523 160.284 326.33C160.295 323.398 160.631 320.778 161.29 318.472C161.96 316.153 162.915 314.187 164.153 312.574C165.403 310.96 166.898 309.733 168.636 308.892C170.375 308.04 172.324 307.614 174.483 307.614C176.813 307.614 178.869 308.068 180.653 308.977C182.438 309.875 183.869 311.097 184.949 312.642C186.04 314.188 186.699 315.92 186.926 317.841H179.648C179.364 316.625 178.767 315.67 177.858 314.977C176.949 314.284 175.824 313.938 174.483 313.938C172.21 313.938 170.483 314.926 169.301 316.903C168.131 318.881 167.534 321.568 167.511 324.966H167.75C168.273 323.932 168.977 323.051 169.864 322.324C170.761 321.585 171.778 321.023 172.915 320.636C174.062 320.239 175.273 320.04 176.545 320.04C178.614 320.04 180.455 320.528 182.068 321.506C183.682 322.472 184.955 323.801 185.886 325.494C186.818 327.187 187.284 329.125 187.284 331.307C187.284 333.67 186.733 335.773 185.631 337.614C184.54 339.455 183.011 340.898 181.045 341.943C179.091 342.977 176.818 343.489 174.227 343.477ZM174.193 337.682C175.33 337.682 176.347 337.409 177.244 336.864C178.142 336.318 178.847 335.58 179.358 334.648C179.869 333.716 180.125 332.67 180.125 331.511C180.125 330.352 179.869 329.312 179.358 328.392C178.858 327.472 178.165 326.739 177.278 326.193C176.392 325.648 175.381 325.375 174.244 325.375C173.392 325.375 172.602 325.534 171.875 325.852C171.159 326.17 170.528 326.614 169.983 327.182C169.449 327.75 169.028 328.409 168.722 329.159C168.415 329.898 168.261 330.687 168.261 331.528C168.261 332.653 168.517 333.682 169.028 334.614C169.551 335.545 170.256 336.29 171.142 336.847C172.04 337.403 173.057 337.682 174.193 337.682Z" fill="white"/>
<path d="M326.733 193.477C324.188 193.477 321.92 193.04 319.932 192.165C317.955 191.278 316.392 190.062 315.244 188.517C314.108 186.96 313.523 185.165 313.489 183.131H320.92C320.966 183.983 321.244 184.733 321.756 185.381C322.278 186.017 322.972 186.511 323.835 186.864C324.699 187.216 325.67 187.392 326.75 187.392C327.875 187.392 328.869 187.193 329.733 186.795C330.597 186.398 331.273 185.847 331.761 185.142C332.25 184.437 332.494 183.625 332.494 182.705C332.494 181.773 332.233 180.949 331.71 180.233C331.199 179.506 330.46 178.937 329.494 178.528C328.54 178.119 327.403 177.915 326.085 177.915H322.83V172.494H326.085C327.199 172.494 328.182 172.301 329.034 171.915C329.898 171.528 330.568 170.994 331.045 170.312C331.523 169.619 331.761 168.812 331.761 167.892C331.761 167.017 331.551 166.25 331.131 165.591C330.722 164.92 330.142 164.398 329.392 164.023C328.653 163.648 327.79 163.46 326.801 163.46C325.801 163.46 324.886 163.642 324.057 164.006C323.227 164.358 322.562 164.864 322.062 165.523C321.562 166.182 321.295 166.955 321.261 167.841H314.188C314.222 165.83 314.795 164.057 315.909 162.523C317.023 160.989 318.523 159.79 320.409 158.926C322.307 158.051 324.449 157.614 326.835 157.614C329.244 157.614 331.352 158.051 333.159 158.926C334.966 159.801 336.369 160.983 337.369 162.472C338.381 163.949 338.881 165.608 338.869 167.449C338.881 169.403 338.273 171.034 337.045 172.341C335.83 173.648 334.244 174.477 332.29 174.83V175.102C334.858 175.432 336.813 176.324 338.153 177.778C339.506 179.222 340.176 181.028 340.165 183.199C340.176 185.188 339.602 186.955 338.443 188.5C337.295 190.045 335.71 191.261 333.688 192.148C331.665 193.034 329.347 193.477 326.733 193.477Z" fill="white"/>
<path d="M15.4602 157.614C17.2557 157.614 18.983 157.915 20.642 158.517C22.3125 159.119 23.8011 160.08 25.108 161.398C26.4261 162.716 27.4659 164.466 28.2273 166.648C29 168.818 29.392 171.483 29.4034 174.642C29.4034 177.608 29.0682 180.256 28.3977 182.585C27.7386 184.903 26.7898 186.875 25.5511 188.5C24.3125 190.125 22.8182 191.364 21.0682 192.216C19.3182 193.057 17.3636 193.477 15.2045 193.477C12.875 193.477 10.8182 193.028 9.03409 192.131C7.25 191.222 5.8125 189.989 4.72159 188.432C3.64205 186.864 2.98864 185.102 2.76136 183.148H10.0398C10.3239 184.42 10.9205 185.409 11.8295 186.114C12.7386 186.807 13.8636 187.153 15.2045 187.153C17.4773 187.153 19.2045 186.165 20.3864 184.188C21.5682 182.199 22.1648 179.477 22.1761 176.023H21.9375C21.4148 177.045 20.7102 177.926 19.8239 178.665C18.9375 179.392 17.9205 179.955 16.7727 180.352C15.6364 180.75 14.4261 180.949 13.142 180.949C11.0852 180.949 9.25 180.466 7.63636 179.5C6.02273 178.534 4.75 177.205 3.81818 175.511C2.88636 173.818 2.42045 171.886 2.42045 169.716C2.40909 167.375 2.94886 165.29 4.03977 163.46C5.13068 161.631 6.65341 160.199 8.60795 159.165C10.5739 158.119 12.858 157.602 15.4602 157.614ZM15.5114 163.409C14.3636 163.409 13.3409 163.682 12.4432 164.227C11.5568 164.773 10.8523 165.506 10.3295 166.426C9.81818 167.347 9.56818 168.375 9.57955 169.511C9.57955 170.659 9.82955 171.693 10.3295 172.614C10.8409 173.523 11.5341 174.25 12.4091 174.795C13.2955 175.33 14.3068 175.597 15.4432 175.597C16.2955 175.597 17.0852 175.437 17.8125 175.119C18.5398 174.801 19.1705 174.364 19.7045 173.807C20.25 173.239 20.6761 172.585 20.983 171.847C21.2898 171.108 21.4432 170.324 21.4432 169.494C21.4318 168.392 21.1705 167.381 20.6591 166.46C20.1477 165.54 19.4432 164.801 18.5455 164.244C17.6477 163.687 16.6364 163.409 15.5114 163.409Z" fill="white"/>
<ellipse cx="264.5" cy="55" rx="8.5" ry="9" fill="white"/>
<ellipse cx="302.5" cy="102" rx="8.5" ry="9" fill="white"/>
<ellipse cx="302.5" cy="250" rx="8.5" ry="9" fill="white"/>
<ellipse cx="247.5" cy="305" rx="8.5" ry="9" fill="white"/>
<ellipse cx="94.5" cy="305" rx="8.5" ry="9" fill="white"/>
<ellipse cx="42.5" cy="250" rx="8.5" ry="9" fill="white"/>
<ellipse cx="42.5" cy="102" rx="8.5" ry="9" fill="white"/>
<ellipse cx="102.5" cy="46" rx="8.5" ry="9" fill="white"/>
</svg>
